<svg version="1.1" viewBox="0.0 0.0 226.77165354330708 45.354330708661415" fill="none" stroke="none" stroke-linecap="square" stroke-miterlimit="10" xmlns:xlink="http://www.w3.org/1999/xlink" xmlns="http://www.w3.org/2000/svg"><clipPath id="p.0"><path d="m0 0l226.77165 0l0 45.354332l-226.77165 0l0 -45.354332z" clip-rule="nonzero"/></clipPath><g clip-path="url(#p.0)"><path fill="#000000" fill-opacity="0.0" d="m0 0l226.77165 0l0 45.354332l-226.77165 0z" fill-rule="evenodd"/><path fill="#f6b26b" d="m26.23097 7.1049867l20.000002 0l0 30.23622l-20.000002 0z" fill-rule="evenodd"/><path stroke="#e69138" stroke-width="1.0" stroke-linejoin="round" stroke-linecap="butt" d="m26.23097 7.1049867l20.000002 0l0 30.23622l-20.000002 0z" fill-rule="evenodd"/><path fill="#000000" fill-opacity="0.0" d="m52.986877 -2.6929133l183.05511 0l0 53.322834l-183.05511 0z" fill-rule="evenodd"/><path fill="#1155cc" d="m62.799377 27.499584l2.390625 -0.328125q0.09375 2.296875 0.859375 3.140625q0.765625 0.84375 2.125 0.84375q0.984375 0 1.703125 -0.453125q0.734375 -0.453125 1.0 -1.234375q0.28125 -0.796875 0.28125 -2.515625l0 -13.8125l2.65625 0l0 13.65625q0 2.515625 -0.609375 3.90625q-0.609375 1.375 -1.9375 2.109375q-1.3125 0.71875 -3.09375 0.71875q-2.625 0 -4.03125 -1.515625q-1.40625 -1.515625 -1.34375 -4.515625zm24.546875 5.6875l0 -2.140625q-1.6875 2.46875 -4.609375 2.46875q-1.28125 0 -2.40625 -0.484375q-1.109375 -0.5 -1.65625 -1.234375q-0.53125 -0.75 -0.75 -1.84375q-0.140625 -0.71875 -0.140625 -2.296875l0 -8.984375l2.453125 0l0 8.046875q0 1.921875 0.15625 2.59375q0.234375 0.96875 0.984375 1.53125q0.75 0.546875 1.859375 0.546875q1.109375 0 2.078125 -0.5625q0.96875 -0.5625 1.375 -1.53125q0.40625 -0.984375 0.40625 -2.84375l0 -7.78125l2.453125 0l0 14.515625l-2.203125 0zm6.0566406 0l0 -14.515625l2.21875 0l0 2.0625q1.59375 -2.390625 4.625 -2.390625q1.3125 0 2.40625 0.46875q1.109375 0.46875 1.65625 1.234375q0.546875 0.765625 0.765625 1.8125q0.125 0.6875 0.125 2.40625l0 8.921875l-2.453125 0l0 -8.828125q0 -1.515625 -0.296875 -2.25q-0.28125 -0.75 -1.015625 -1.1875q-0.734375 -0.453125 -1.71875 -0.453125q-1.5625 0 -2.703125 1.0q-1.140625 1.0 -1.140625 3.78125l0 7.9375l-2.46875 0zm25.05664 -5.3125l2.40625 0.3125q-0.390625 2.5 -2.03125 3.921875q-1.625 1.40625 -4.0 1.40625q-2.984375 0 -4.796875 -1.9375q-1.8125 -1.953125 -1.8125 -5.59375q0 -2.359375 0.78125 -4.109375q0.78125 -1.765625 2.375 -2.640625q1.59375 -0.890625 3.46875 -0.890625q2.359375 0 3.859375 1.203125q1.5 1.1875 1.9375 3.390625l-2.40625 0.359375q-0.328125 -1.453125 -1.203125 -2.1875q-0.875 -0.75 -2.09375 -0.75q-1.859375 0 -3.03125 1.34375q-1.15625 1.328125 -1.15625 4.203125q0 2.9375 1.109375 4.265625q1.125 1.3125 2.9375 1.3125q1.453125 0 2.421875 -0.875q0.96875 -0.890625 1.234375 -2.734375zm9.890625 3.109375l0.359375 2.171875q-1.046875 0.21875 -1.859375 0.21875q-1.34375 0 -2.078125 -0.421875q-0.734375 -0.421875 -1.046875 -1.109375q-0.296875 -0.6875 -0.296875 -2.90625l0 -8.359375l-1.796875 0l0 -1.90625l1.796875 0l0 -3.59375l2.453125 -1.484375l0 5.078125l2.46875 0l0 1.90625l-2.46875 0l0 8.5q0 1.046875 0.125 1.34375q0.125 0.296875 0.421875 0.484375q0.296875 0.171875 0.84375 0.171875q0.40625 0 1.078125 -0.09375zm2.4199219 -15.015625l0 -2.828125l2.46875 0l0 2.828125l-2.46875 0zm0 17.21875l0 -14.515625l2.46875 0l0 14.515625l-2.46875 0zm5.298828 -7.265625q0 -4.03125 2.234375 -5.96875q1.875 -1.609375 4.5625 -1.609375q3.0 0 4.890625 1.96875q1.90625 1.953125 1.90625 5.40625q0 2.8125 -0.84375 4.421875q-0.828125 1.59375 -2.4375 2.484375q-1.609375 0.890625 -3.515625 0.890625q-3.046875 0 -4.921875 -1.953125q-1.875 -1.953125 -1.875 -5.640625zm2.515625 0q0 2.796875 1.21875 4.1875q1.21875 1.375 3.0625 1.375q1.84375 0 3.046875 -1.390625q1.21875 -1.390625 1.21875 -4.25q0 -2.6875 -1.21875 -4.078125q-1.21875 -1.390625 -3.046875 -1.390625q-1.84375 0 -3.0625 1.390625q-1.21875 1.375 -1.21875 4.15625zm13.962891 7.265625l0 -14.515625l2.21875 0l0 2.0625q1.59375 -2.390625 4.625 -2.390625q1.3125 0 2.40625 0.46875q1.109375 0.46875 1.65625 1.234375q0.546875 0.765625 0.765625 1.8125q0.125 0.6875 0.125 2.40625l0 8.921875l-2.453125 0l0 -8.828125q0 -1.515625 -0.296875 -2.25q-0.28125 -0.75 -1.015625 -1.1875q-0.734375 -0.453125 -1.71875 -0.453125q-1.5625 0 -2.703125 1.0q-1.140625 1.0 -1.140625 3.78125l0 7.9375l-2.46875 0zm23.554688 0l0 -20.046875l7.53125 0q2.296875 0 3.671875 0.609375q1.390625 0.609375 2.171875 1.875q0.796875 1.265625 0.796875 2.640625q0 1.296875 -0.703125 2.4375q-0.6875 1.125 -2.109375 1.8125q1.828125 0.546875 2.796875 1.828125q0.984375 1.28125 0.984375 3.03125q0 1.40625 -0.59375 2.625q-0.59375 1.203125 -1.46875 1.859375q-0.875 0.65625 -2.203125 1.0q-1.3125 0.328125 -3.234375 0.328125l-7.640625 0zm2.65625 -11.625l4.328125 0q1.765625 0 2.53125 -0.234375q1.015625 -0.296875 1.53125 -0.984375q0.515625 -0.703125 0.515625 -1.765625q0 -0.984375 -0.484375 -1.75q-0.484375 -0.765625 -1.375 -1.03125q-0.875 -0.28125 -3.046875 -0.28125l-4.0 0l0 6.046875zm0 9.265625l4.984375 0q1.296875 0 1.8125 -0.109375q0.921875 -0.15625 1.53125 -0.53125q0.609375 -0.390625 1.0 -1.125q0.40625 -0.734375 0.40625 -1.6875q0 -1.125 -0.578125 -1.953125q-0.5625 -0.828125 -1.59375 -1.15625q-1.015625 -0.328125 -2.921875 -0.328125l-4.640625 0l0 6.890625zm14.910156 -4.90625q0 -4.03125 2.234375 -5.96875q1.875 -1.609375 4.5625 -1.609375q3.0 0 4.890625 1.96875q1.90625 1.953125 1.90625 5.40625q0 2.8125 -0.84375 4.421875q-0.828125 1.59375 -2.4375 2.484375q-1.609375 0.890625 -3.515625 0.890625q-3.046875 0 -4.921875 -1.953125q-1.875 -1.953125 -1.875 -5.640625zm2.515625 0q0 2.796875 1.21875 4.1875q1.21875 1.375 3.0625 1.375q1.84375 0 3.046875 -1.390625q1.21875 -1.390625 1.21875 -4.25q0 -2.6875 -1.21875 -4.078125q-1.21875 -1.390625 -3.046875 -1.390625q-1.84375 0 -3.0625 1.390625q-1.21875 1.375 -1.21875 4.15625zm12.322266 7.265625l5.3125 -7.546875l-4.90625 -6.96875l3.0625 0l2.234375 3.40625q0.625 0.96875 1.015625 1.625q0.59375 -0.90625 1.109375 -1.609375l2.4375 -3.421875l2.9375 0l-5.015625 6.828125l5.40625 7.6875l-3.015625 0l-2.984375 -4.515625l-0.796875 -1.21875l-3.8125 5.734375l-2.984375 0z" fill-rule="nonzero"/><path fill="#666666" d="m33.75328 10.283464l4.9133873 0l0 24.125986l-4.9133873 0z" fill-rule="evenodd"/><path stroke="#666666" stroke-width="1.0" stroke-linejoin="round" stroke-linecap="butt" d="m33.75328 10.283464l4.9133873 0l0 24.125986l-4.9133873 0z" fill-rule="evenodd"/><path fill="#cfe2f3" d="m34.451443 13.070867l0 0c0 -1.0262938 0.7967224 -1.8582678 1.7795296 -1.8582678l0 0c0.47195816 0 0.92458725 0.19578075 1.258316 0.5442734c0.33372498 0.34849262 0.5212097 0.8211508 0.5212097 1.3139944l0 0c0 1.0262928 -0.7967224 1.8582668 -1.7795258 1.8582668l0 0c-0.98280716 0 -1.7795296 -0.831974 -1.7795296 -1.8582668zm0.8897629 0l0 0c0 0.5348892 0.3983612 0.96850395 0.8897667 0.96850395c0.49140167 0 0.8897629 -0.43361473 0.8897629 -0.96850395c0 -0.5348902 -0.3983612 -0.96850395 -0.8897629 -0.96850395l0 0c-0.4914055 0 -0.8897667 0.43361378 -0.8897667 0.96850395z" fill-rule="evenodd"/><path stroke="#000000" stroke-width="1.0" stroke-linejoin="round" stroke-linecap="butt" d="m34.451443 13.070867l0 0c0 -1.0262938 0.7967224 -1.8582678 1.7795296 -1.8582678l0 0c0.47195816 0 0.92458725 0.19578075 1.258316 0.5442734c0.33372498 0.34849262 0.5212097 0.8211508 0.5212097 1.3139944l0 0c0 1.0262928 -0.7967224 1.8582668 -1.7795258 1.8582668l0 0c-0.98280716 0 -1.7795296 -0.831974 -1.7795296 -1.8582668zm0.8897629 0l0 0c0 0.5348892 0.3983612 0.96850395 0.8897667 0.96850395c0.49140167 0 0.8897629 -0.43361473 0.8897629 -0.96850395c0 -0.5348902 -0.3983612 -0.96850395 -0.8897629 -0.96850395l0 0c-0.4914055 0 -0.8897667 0.43361378 -0.8897667 0.96850395z" fill-rule="evenodd"/><path fill="#cfe2f3" d="m34.451443 25.503937l0 0c0 -1.0262928 0.7967224 -1.8582668 1.7795296 -1.8582668l0 0c0.47195816 0 0.92458725 0.1957798 1.258316 0.5442734c0.33372498 0.34849358 0.5212097 0.8211498 0.5212097 1.3139935l0 0c0 1.0262928 -0.7967224 1.8582687 -1.7795258 1.8582687l0 0c-0.98280716 0 -1.7795296 -0.83197594 -1.7795296 -1.8582687zm0.8897629 0l0 0c0 0.5348911 0.3983612 0.96850395 0.8897667 0.96850395c0.49140167 0 0.8897629 -0.43361282 0.8897629 -0.96850395c0 -0.5348892 -0.3983612 -0.96850395 -0.8897629 -0.96850395l0 0c-0.4914055 0 -0.8897667 0.43361473 -0.8897667 0.96850395z" fill-rule="evenodd"/><path stroke="#000000" stroke-width="1.0" stroke-linejoin="round" stroke-linecap="butt" d="m34.451443 25.503937l0 0c0 -1.0262928 0.7967224 -1.8582668 1.7795296 -1.8582668l0 0c0.47195816 0 0.92458725 0.1957798 1.258316 0.5442734c0.33372498 0.34849358 0.5212097 0.8211498 0.5212097 1.3139935l0 0c0 1.0262928 -0.7967224 1.8582687 -1.7795258 1.8582687l0 0c-0.98280716 0 -1.7795296 -0.83197594 -1.7795296 -1.8582687zm0.8897629 0l0 0c0 0.5348911 0.3983612 0.96850395 0.8897667 0.96850395c0.49140167 0 0.8897629 -0.43361282 0.8897629 -0.96850395c0 -0.5348892 -0.3983612 -0.96850395 -0.8897629 -0.96850395l0 0c-0.4914055 0 -0.8897667 0.43361473 -0.8897667 0.96850395z" fill-rule="evenodd"/><path fill="#cfe2f3" d="m34.451443 19.287401l0 0c0 -1.0262928 0.7967224 -1.8582668 1.7795296 -1.8582668l0 0c0.47195816 0 0.92458725 0.1957798 1.258316 0.5442734c0.33372498 0.34849358 0.5212097 0.8211498 0.5212097 1.3139935l0 0c0 1.0262928 -0.7967224 1.8582687 -1.7795258 1.8582687l0 0c-0.98280716 0 -1.7795296 -0.83197594 -1.7795296 -1.8582687zm0.8897629 0l0 0c0 0.5348911 0.3983612 0.96850395 0.8897667 0.96850395c0.49140167 0 0.8897629 -0.43361282 0.8897629 -0.96850395c0 -0.5348892 -0.3983612 -0.96850395 -0.8897629 -0.96850395l0 0c-0.4914055 0 -0.8897667 0.43361473 -0.8897667 0.96850395z" fill-rule="evenodd"/><path stroke="#000000" stroke-width="1.0" stroke-linejoin="round" stroke-linecap="butt" d="m34.451443 19.287401l0 0c0 -1.0262928 0.7967224 -1.8582668 1.7795296 -1.8582668l0 0c0.47195816 0 0.92458725 0.1957798 1.258316 0.5442734c0.33372498 0.34849358 0.5212097 0.8211498 0.5212097 1.3139935l0 0c0 1.0262928 -0.7967224 1.8582687 -1.7795258 1.8582687l0 0c-0.98280716 0 -1.7795296 -0.83197594 -1.7795296 -1.8582687zm0.8897629 0l0 0c0 0.5348911 0.3983612 0.96850395 0.8897667 0.96850395c0.49140167 0 0.8897629 -0.43361282 0.8897629 -0.96850395c0 -0.5348892 -0.3983612 -0.96850395 -0.8897629 -0.96850395l0 0c-0.4914055 0 -0.8897667 0.43361473 -0.8897667 0.96850395z" fill-rule="evenodd"/><path fill="#cfe2f3" d="m34.451443 31.75328l0 0c0 -1.0262928 0.7967224 -1.8582668 1.7795296 -1.8582668l0 0c0.47195816 0 0.92458725 0.1957798 1.258316 0.5442734c0.33372498 0.34849358 0.5212097 0.8211498 0.5212097 1.3139935l0 0c0 1.0262947 -0.7967224 1.8582687 -1.7795258 1.8582687l0 0c-0.98280716 0 -1.7795296 -0.831974 -1.7795296 -1.8582687zm0.8897629 0l0 0c0 0.5348892 0.3983612 0.96850586 0.8897667 0.96850586c0.49140167 0 0.8897629 -0.43361664 0.8897629 -0.96850586c0 -0.5348892 -0.3983612 -0.96850395 -0.8897629 -0.96850395l0 0c-0.4914055 0 -0.8897667 0.43361473 -0.8897667 0.96850395z" fill-rule="evenodd"/><path stroke="#000000" stroke-width="1.0" stroke-linejoin="round" stroke-linecap="butt" d="m34.451443 31.75328l0 0c0 -1.0262928 0.7967224 -1.8582668 1.7795296 -1.8582668l0 0c0.47195816 0 0.92458725 0.1957798 1.258316 0.5442734c0.33372498 0.34849358 0.5212097 0.8211498 0.5212097 1.3139935l0 0c0 1.0262947 -0.7967224 1.8582687 -1.7795258 1.8582687l0 0c-0.98280716 0 -1.7795296 -0.831974 -1.7795296 -1.8582687zm0.8897629 0l0 0c0 0.5348892 0.3983612 0.96850586 0.8897667 0.96850586c0.49140167 0 0.8897629 -0.43361664 0.8897629 -0.96850586c0 -0.5348892 -0.3983612 -0.96850395 -0.8897629 -0.96850395l0 0c-0.4914055 0 -0.8897667 0.43361473 -0.8897667 0.96850395z" fill-rule="evenodd"/><path fill="#000000" fill-opacity="0.0" d="m38.010498 13.070867c8.503937 0 12.755905 -2.629922 17.007874 -5.259843c4.2519684 -2.6299214 8.503937 -5.259843 17.007874 -5.259843" fill-rule="evenodd"/><path stroke="#ff0000" stroke-width="1.0" stroke-linejoin="round" stroke-linecap="butt" d="m38.010498 13.070867c8.503937 0 12.755905 -2.629922 17.007874 -5.259843c4.2519684 -2.6299214 8.503937 -5.259843 17.007874 -5.259843" fill-rule="evenodd"/><path fill="#000000" fill-opacity="0.0" d="m38.010498 19.287401c6.6692924 0 10.003937 -2.015747 13.338585 -4.031496c3.3346443 -2.015748 6.6692886 -4.031496 13.338585 -4.031496" fill-rule="evenodd"/><path stroke="#f1c232" stroke-width="1.0" stroke-linejoin="round" stroke-linecap="butt" d="m38.010498 19.287401c6.6692924 0 10.003937 -2.015747 13.338585 -4.031496c3.3346443 -2.015748 6.6692886 -4.031496 13.338585 -4.031496" fill-rule="evenodd"/><path fill="#000000" fill-opacity="0.0" d="m38.010498 31.75328c8.669292 0 13.003937 2.3307076 17.338585 4.661419c4.3346443 2.3307076 8.669289 4.661415 17.338585 4.661415" fill-rule="evenodd"/><path stroke="#00ff00" stroke-width="1.0" stroke-linejoin="round" stroke-linecap="butt" d="m38.010498 31.75328c8.669292 0 13.003937 2.3307076 17.338585 4.661419c4.3346443 2.3307076 8.669289 4.661415 17.338585 4.661415" fill-rule="evenodd"/><path fill="#000000" fill-opacity="0.0" d="m59.5853 29.661417c-5.3936996 0 -8.090549 -1.0393696 -10.787399 -2.0787392c-2.6968498 -1.0393715 -5.3937035 -2.078741 -10.787403 -2.078741" fill-rule="evenodd"/><path stroke="#3d85c6" stroke-width="1.0" stroke-linejoin="round" stroke-linecap="butt" d="m59.5853 29.661417c-5.3936996 0 -8.090549 -1.0393696 -10.787399 -2.0787392c-2.6968498 -1.0393715 -5.3937035 -2.078741 -10.787403 -2.078741" fill-rule="evenodd"/><path fill="#f6b26b" d="m51.742783 38.82152l-5.5118103 -1.3779526l0 -30.440945l5.5118103 -1.3779526z" fill-rule="evenodd"/><path stroke="#e69138" stroke-width="1.0" stroke-linejoin="round" stroke-linecap="butt" d="m51.742783 38.82152l-5.5118103 -1.3779526l0 -30.440945l5.5118103 -1.3779526z" fill-rule="evenodd"/><path fill="#000000" fill-opacity="0.0" d="m34.451443 13.070867c-7.968504 0 -11.952755 -2.4409456 -15.937008 -4.8818903c-3.984251 -2.4409447 -7.968503 -4.8818893 -15.937007 -4.8818893" fill-rule="evenodd"/><path stroke="#ff0000" stroke-width="1.0" stroke-linejoin="round" stroke-linecap="butt" d="m34.451443 13.070867c-7.968504 0 -11.952755 -2.4409456 -15.937008 -4.8818903c-3.984251 -2.4409447 -7.968503 -4.8818893 -15.937007 -4.8818893" fill-rule="evenodd"/><path fill="#000000" fill-opacity="0.0" d="m34.451443 19.287401c-6.8976364 0 -10.346457 -1.0787392 -13.795275 -2.1574802c-3.4488182 -1.0787392 -6.8976374 -2.1574802 -13.795276 -2.1574802" fill-rule="evenodd"/><path stroke="#f1c232" stroke-width="1.0" stroke-linejoin="round" stroke-linecap="butt" d="m34.451443 19.287401c-6.8976364 0 -10.346457 -1.0787392 -13.795275 -2.1574802c-3.4488182 -1.0787392 -6.8976374 -2.1574802 -13.795276 -2.1574802" fill-rule="evenodd"/><path fill="#000000" fill-opacity="0.0" d="m12.593176 26.921259c5.464567 0 8.19685 -0.35433006 10.929134 -0.7086601c2.7322826 -0.35433197 5.464567 -0.70866203 10.929132 -0.70866203" fill-rule="evenodd"/><path stroke="#3c78d8" stroke-width="1.0" stroke-linejoin="round" stroke-linecap="butt" d="m12.593176 26.921259c5.464567 0 8.19685 -0.35433006 10.929134 -0.7086601c2.7322826 -0.35433197 5.464567 -0.70866203 10.929132 -0.70866203" fill-rule="evenodd"/><path fill="#000000" fill-opacity="0.0" d="m34.451443 31.75328c-7.582676 0 -11.374016 2.0708656 -15.165354 4.1417313c-3.791338 2.0708656 -7.582677 4.141735 -15.165354 4.141735" fill-rule="evenodd"/><path stroke="#00ff00" stroke-width="1.0" stroke-linejoin="round" stroke-linecap="butt" d="m34.451443 31.75328c-7.582676 0 -11.374016 2.0708656 -15.165354 4.1417313c-3.791338 2.0708656 -7.582677 4.141735 -15.165354 4.141735" fill-rule="evenodd"/><path fill="#f6b26b" d="m20.71916 5.624672l5.5118103 1.3779526l0 30.440945l-5.5118103 1.3779526z" fill-rule="evenodd"/><path stroke="#e69138" stroke-width="1.0" stroke-linejoin="round" stroke-linecap="butt" d="m20.71916 5.624672l5.5118103 1.3779526l0 30.440945l-5.5118103 1.3779526z" fill-rule="evenodd"/></g></svg>
