<svg version="1.1" viewBox="0.0 0.0 1280.0 640.0" fill="none" stroke="none" stroke-linecap="square" stroke-miterlimit="10" xmlns:xlink="http://www.w3.org/1999/xlink" xmlns="http://www.w3.org/2000/svg"><clipPath id="p.0"><path d="m0 0l1280.0 0l0 640.0l-1280.0 0l0 -640.0z" clip-rule="nonzero"/></clipPath><g clip-path="url(#p.0)"><path fill="#000000" fill-opacity="0.0" d="m0 0l1280.0 0l0 640.0l-1280.0 0z" fill-rule="evenodd"/><path fill="#000000" fill-opacity="0.0" d="m374.51443 25.935696l885.95276 0l0 378.70865l-885.95276 0z" fill-rule="evenodd"/><path fill="#1155cc" d="m516.13947 152.95007l24.1875 0l0 76.125q0 14.9375 -2.625 22.96875q-3.515625 10.5 -12.796875 16.859375q-9.265625 6.359375 -24.43753 6.359375q-17.796875 0 -27.40625 -9.96875q-9.59375 -9.96875 -9.671875 -29.234375l22.890625 -2.625q0.40625 10.328125 3.03125 14.59375q3.9375 6.484375 11.96875 6.484375q8.125 0 11.4844055 -4.625q3.375 -4.640625 3.375 -19.25l0 -77.6875zm107.21484 120.265625l0 -13.046875q-4.765625 6.96875 -12.515625 11.0q-7.75 4.015625 -16.359375 4.015625q-8.78125 0 -15.765625 -3.859375q-6.96875 -3.859375 -10.09375 -10.828125q-3.109375 -6.96875 -3.109375 -19.28125l0 -55.125l23.0625 0l0 40.03125q0 18.375 1.265625 22.53125q1.265625 4.140625 4.625 6.5625q3.375 2.40625 8.546875 2.40625q5.90625 0 10.578125 -3.234375q4.671875 -3.234375 6.390625 -8.03125q1.734375 -4.8125 1.734375 -23.515625l0 -36.75l23.046875 0l0 87.125l-21.40625 0zm124.51172 0l-23.046875 0l0 -44.46875q0 -14.109375 -1.484375 -18.25q-1.46875 -4.140625 -4.796875 -6.4375q-3.3125 -2.296875 -7.984375 -2.296875q-6.0 0 -10.765625 3.28125q-4.75 3.28125 -6.515625 8.703125q-1.75 5.40625 -1.75 20.015625l0 39.453125l-23.0625 0l0 -87.125l21.421875 0l0 12.796875q11.390625 -14.765625 28.703125 -14.765625q7.625 0 13.9375 2.75q6.328125 2.75 9.5625 7.015625q3.25 4.265625 4.515625 9.6875q1.265625 5.40625 1.265625 15.5l0 54.140625zm99.33984 -61.359375l-22.71875 4.09375q-1.140625 -6.796875 -5.203125 -10.234375q-4.0625 -3.453125 -10.546875 -3.453125q-8.609375 0 -13.734375 5.953125q-5.125 5.9375 -5.125 19.875q0 15.515625 5.203125 21.921875q5.203125 6.390625 13.984375 6.390625q6.5625 0 10.75 -3.734375q4.1875 -3.734375 5.90625 -12.84375l22.640625 3.859375q-3.53125 15.578125 -13.546875 23.546875q-10.0 7.953125 -26.8125 7.953125q-19.109375 0 -30.484375 -12.0625q-11.359375 -12.0625 -11.359375 -33.390625q0 -21.5625 11.40625 -33.578125q11.40625 -12.03125 30.84375 -12.03125q15.921875 0 25.3125 6.859375q9.390625 6.84375 13.484375 20.875zm57.433594 -25.765625l0 18.375l-15.75 0l0 35.109375q0 10.671875 0.4375 12.4375q0.453125 1.765625 2.046875 2.921875q1.609375 1.140625 3.90625 1.140625q3.203125 0 9.265625 -2.21875l1.96875 17.875q-8.03125 3.453125 -18.203125 3.453125q-6.234375 0 -11.25 -2.09375q-5.0 -2.09375 -7.34375 -5.40625q-2.328125 -3.328125 -3.234375 -8.984375q-0.734375 -4.03125 -0.734375 -16.25l0 -37.984375l-10.578125 0l0 -18.375l10.578125 0l0 -17.296875l23.140625 -13.453125l0 30.75l15.75 0zm15.9921875 -11.8125l0 -21.328125l23.046875 0l0 21.328125l-23.046875 0zm0 98.9375l0 -87.125l23.046875 0l0 87.125l-23.046875 0zm41.347656 -44.796875q0 -11.484375 5.65625 -22.21875q5.65625 -10.75 16.03125 -16.40625q10.375 -5.671875 23.171875 -5.671875q19.781189 0 32.40619 12.84375q12.640625 12.84375 12.640625 32.4375q0 19.78125 -12.765625 32.78125q-12.75 13.0 -32.109314 13.0q-11.984375 0 -22.859375 -5.40625q-10.859375 -5.421875 -16.515625 -15.875q-5.65625 -10.46875 -5.65625 -25.484375zm23.625 1.234375q0 12.96875 6.140625 19.859375q6.15625 6.890625 15.1875 6.890625q9.015625 0 15.125 -6.890625q6.109314 -6.890625 6.109314 -20.015625q0 -12.796875 -6.109314 -19.6875q-6.109375 -6.890625 -15.125 -6.890625q-9.03125 0 -15.1875 6.890625q-6.140625 6.890625 -6.140625 19.84375zm163.55853 43.5625l-23.046875 0l0 -44.46875q0 -14.109375 -1.484375 -18.25q-1.46875 -4.140625 -4.796875 -6.4375q-3.3125 -2.296875 -7.984375 -2.296875q-6.0 0 -10.765625 3.28125q-4.75 3.28125 -6.515625 8.703125q-1.75 5.40625 -1.75 20.015625l0 39.453125l-23.0625 0l0 -87.125l21.421875 0l0 12.796875q11.390625 -14.765625 28.703125 -14.765625q7.625 0 13.9375 2.75q6.328125 2.75 9.5625 7.015625q3.25 4.265625 4.515625 9.6875q1.265625 5.40625 1.265625 15.5l0 54.140625z" fill-rule="nonzero"/><path fill="#000000" fill-opacity="0.0" d="m709.7507 316.70996l498.04718 0l0 297.35437l-498.04718 0z" fill-rule="evenodd"/><path fill="#1155cc" d="m734.17255 377.1531l60.28125 0q17.90625 0 26.6875 1.5q8.796875 1.484375 15.734375 6.21875q6.953125 4.734375 11.578125 12.609375q4.625 7.859375 4.625 17.625q0 10.59375 -5.703125 19.453125q-5.703125 8.84375 -15.484375 13.265625q13.78125 4.015625 21.1875 13.6875q7.40625 9.65625 7.40625 22.71875q0 10.296875 -4.78125 20.015625q-4.78125 9.7187195 -13.0625 15.5312195q-8.28125 5.8125 -20.40625 7.140625q-7.625 0.828125 -36.734375 1.03125l-51.328125 0l0 -150.79684zm30.453125 25.109375l0 34.859375l19.953125 0q17.796875 0 22.109375 -0.515625q7.828125 -0.921875 12.296875 -5.390625q4.484375 -4.484375 4.484375 -11.78125q0 -7.0 -3.859375 -11.359375q-3.859375 -4.375 -11.46875 -5.3125q-4.53125 -0.5 -26.03125 -0.5l-17.484375 0zm0 59.953125l0 40.328125l28.1875 0q16.453125 0 20.875 -0.921875q6.796875 -1.234375 11.0625 -6.015625q4.265625 -4.78125 4.265625 -12.8125q0 -6.78125 -3.296875 -11.515625q-3.28125 -4.734375 -9.515625 -6.890625q-6.21875 -2.171875 -27.0 -2.171875l-24.578125 0zm114.69171 9.578125q0 -14.40625 7.09375 -27.875q7.09375 -13.484375 20.109375 -20.578125q13.015625 -7.09375 29.0625 -7.09375q24.78125 0 40.625 16.09375q15.84375 16.09375 15.84375 40.6875q0 24.78125 -16.0 41.09372q-16.0 16.296875 -40.265625 16.296875q-15.015625 0 -28.65625 -6.78125q-13.625 -6.796875 -20.71875 -19.90622q-7.09375 -13.125 -7.09375 -31.9375zm29.625 1.53125q0 16.265625 7.703125 24.90625q7.71875 8.625 19.03125 8.625q11.3125 0 18.96875 -8.625q7.671875 -8.640625 7.671875 -25.109375q0 -16.046875 -7.671875 -24.6875q-7.65625 -8.640625 -18.96875 -8.640625q-11.3125 0 -19.03125 8.640625q-7.703125 8.640625 -7.703125 24.890625zm91.84906 54.62497l39.390686 -56.265594l-37.75006 -52.96875l35.28131 0l19.34375 30.03125l20.359375 -30.03125l33.953125 0l-37.03125 51.734375l40.421875 57.49997l-35.484375 0l-22.21875 -33.84372l-22.421875 33.84372l-33.84381 0z" fill-rule="nonzero"/><path fill="#f6b26b" d="m165.26001 109.37139l146.96063 0l0 440.7874l-146.96063 0z" fill-rule="evenodd"/><path stroke="#e69138" stroke-width="1.0" stroke-linejoin="round" stroke-linecap="butt" d="m165.26001 109.37139l146.96063 0l0 440.7874l-146.96063 0z" fill-rule="evenodd"/><path fill="#666666" d="m214.84763 154.25328l47.149597 0l0 351.27557l-47.149597 0z" fill-rule="evenodd"/><path stroke="#666666" stroke-width="1.0" stroke-linejoin="round" stroke-linecap="butt" d="m214.84763 154.25328l47.149597 0l0 351.27557l-47.149597 0z" fill-rule="evenodd"/><path fill="#cfe2f3" d="m224.13911 188.54199l0 0c0 -8.105972 6.3949127 -14.67717 14.283463 -14.67717l0 0c3.788208 0 7.4212646 1.546341 10.09993 4.2988434c2.6786652 2.7525024 4.1835327 6.4857025 4.1835327 10.378326l0 0c0 8.105972 -6.394928 14.67717 -14.283463 14.67717l0 0c-7.88855 0 -14.283463 -6.5711975 -14.283463 -14.67717zm7.1417236 0l0 0c0 4.1617126 3.197464 7.535431 7.141739 7.535431c3.9442596 0 7.1417236 -3.3737183 7.1417236 -7.535431l0 0c0 -4.1616974 -3.197464 -7.535431 -7.1417236 -7.535431l0 0c-3.944275 0 -7.141739 3.3737335 -7.141739 7.535431z" fill-rule="evenodd"/><path stroke="#000000" stroke-width="1.0" stroke-linejoin="round" stroke-linecap="butt" d="m224.13911 188.54199l0 0c0 -8.105972 6.3949127 -14.67717 14.283463 -14.67717l0 0c3.788208 0 7.4212646 1.546341 10.09993 4.2988434c2.6786652 2.7525024 4.1835327 6.4857025 4.1835327 10.378326l0 0c0 8.105972 -6.394928 14.67717 -14.283463 14.67717l0 0c-7.88855 0 -14.283463 -6.5711975 -14.283463 -14.67717zm7.1417236 0l0 0c0 4.1617126 3.197464 7.535431 7.141739 7.535431c3.9442596 0 7.1417236 -3.3737183 7.1417236 -7.535431l0 0c0 -4.1616974 -3.197464 -7.535431 -7.1417236 -7.535431l0 0c-3.944275 0 -7.141739 3.3737335 -7.141739 7.535431z" fill-rule="evenodd"/><path fill="#000000" fill-opacity="0.0" d="m252.70604 188.54199c46.87401 0 70.31102 -38.291336 93.74803 -76.58267c23.437012 -38.291344 46.874023 -76.58268 93.74802 -76.58268" fill-rule="evenodd"/><path stroke="#ff0000" stroke-width="8.0" stroke-linejoin="round" stroke-linecap="butt" d="m252.70604 188.54199c46.87401 0 70.31102 -38.291336 93.74803 -76.58267c23.437012 -38.291344 46.874023 -76.58268 93.74802 -76.58268" fill-rule="evenodd"/><path fill="#000000" fill-opacity="0.0" d="m252.70602 280.48495c36.763794 0 55.14569 -29.34645 73.52756 -58.692917c18.381897 -29.34645 36.763794 -58.6929 73.52756 -58.6929" fill-rule="evenodd"/><path stroke="#f1c232" stroke-width="8.0" stroke-linejoin="round" stroke-linecap="butt" d="m252.70602 280.48495c36.763794 0 55.14569 -29.34645 73.52756 -58.692917c18.381897 -29.34645 36.763794 -58.6929 73.52756 -58.6929" fill-rule="evenodd"/><path fill="#000000" fill-opacity="0.0" d="m250.87926 468.87558c47.7874 0 71.68111 33.93701 95.574814 67.874054c23.893707 33.93701 47.787384 67.87396 95.5748 67.87396" fill-rule="evenodd"/><path stroke="#00ff00" stroke-width="8.0" stroke-linejoin="round" stroke-linecap="butt" d="m250.87926 468.87558c47.7874 0 71.68111 33.93701 95.574814 67.874054c23.893707 33.93701 47.787384 67.87396 95.5748 67.87396" fill-rule="evenodd"/><path fill="#000000" fill-opacity="0.0" d="m441.57217 440.73096c-47.55905 0 -71.33859 -15.685028 -95.1181 -31.370056c-23.779541 -15.685059 -47.55905 -31.370087 -95.11812 -31.370087" fill-rule="evenodd"/><path stroke="#3d85c6" stroke-width="8.0" stroke-linejoin="round" stroke-linecap="butt" d="m441.57217 440.73096c-47.55905 0 -71.33859 -15.685028 -95.1181 -31.370056c-23.779541 -15.685059 -47.55905 -31.370087 -95.11812 -31.370087" fill-rule="evenodd"/><path fill="#000000" fill-opacity="0.0" d="m224.13911 188.54199c-43.921265 0 -65.8819 -35.543304 -87.84253 -71.08661c-21.960625 -35.543312 -43.921257 -71.08662 -87.842514 -71.08662" fill-rule="evenodd"/><path stroke="#ff0000" stroke-width="8.0" stroke-linejoin="round" stroke-linecap="butt" d="m224.13911 188.54199c-43.921265 0 -65.8819 -35.543304 -87.84253 -71.08661c-21.960625 -35.543312 -43.921257 -71.08662 -87.842514 -71.08662" fill-rule="evenodd"/><path fill="#000000" fill-opacity="0.0" d="m224.13838 280.48495c-38.02362 0 -57.03543 -15.708649 -76.04724 -31.417328c-19.01181 -15.708649 -38.02362 -31.417313 -76.04724 -31.417313" fill-rule="evenodd"/><path stroke="#f1c232" stroke-width="8.0" stroke-linejoin="round" stroke-linecap="butt" d="m224.13838 280.48495c-38.02362 0 -57.03543 -15.708649 -76.04724 -31.417328c-19.01181 -15.708649 -38.02362 -31.417313 -76.04724 -31.417313" fill-rule="evenodd"/><path fill="#000000" fill-opacity="0.0" d="m63.692913 397.80447c40.110233 0 60.165356 -4.952759 80.220474 -9.905518c20.055115 -4.952759 40.11023 -9.905518 80.220474 -9.905518" fill-rule="evenodd"/><path stroke="#3c78d8" stroke-width="8.0" stroke-linejoin="round" stroke-linecap="butt" d="m63.692913 397.80447c40.110233 0 60.165356 -4.952759 80.220474 -9.905518c20.055115 -4.952759 40.11023 -9.905518 80.220474 -9.905518" fill-rule="evenodd"/><path fill="#000000" fill-opacity="0.0" d="m227.50322 468.87558c-41.795273 0 -62.692917 30.149628 -83.590546 60.299225c-20.897644 30.149597 -41.79528 60.299194 -83.59056 60.299194" fill-rule="evenodd"/><path stroke="#00ff00" stroke-width="8.0" stroke-linejoin="round" stroke-linecap="butt" d="m227.50322 468.87558c-41.795273 0 -62.692917 30.149628 -83.590546 60.299225c-20.897644 30.149597 -41.79528 60.299194 -83.59056 60.299194" fill-rule="evenodd"/><path fill="#cfe2f3" d="m224.13911 283.26727l0 0c0 -8.105957 6.3949127 -14.677155 14.283463 -14.677155l0 0c3.788208 0 7.4212646 1.5463257 10.09993 4.298828c2.6786652 2.7525024 4.1835327 6.485718 4.1835327 10.378326l0 0c0 8.105988 -6.394928 14.677185 -14.283463 14.677185l0 0c-7.88855 0 -14.283463 -6.5711975 -14.283463 -14.677185zm7.1417236 0l0 0c0 4.1617126 3.197464 7.535431 7.141739 7.535431c3.9442596 0 7.1417236 -3.3737183 7.1417236 -7.535431l0 0c0 -4.1617126 -3.197464 -7.535431 -7.1417236 -7.535431l0 0c-3.944275 0 -7.141739 3.3737183 -7.141739 7.535431z" fill-rule="evenodd"/><path stroke="#000000" stroke-width="1.0" stroke-linejoin="round" stroke-linecap="butt" d="m224.13911 283.26727l0 0c0 -8.105957 6.3949127 -14.677155 14.283463 -14.677155l0 0c3.788208 0 7.4212646 1.5463257 10.09993 4.298828c2.6786652 2.7525024 4.1835327 6.485718 4.1835327 10.378326l0 0c0 8.105988 -6.394928 14.677185 -14.283463 14.677185l0 0c-7.88855 0 -14.283463 -6.5711975 -14.283463 -14.677185zm7.1417236 0l0 0c0 4.1617126 3.197464 7.535431 7.141739 7.535431c3.9442596 0 7.1417236 -3.3737183 7.1417236 -7.535431l0 0c0 -4.1617126 -3.197464 -7.535431 -7.1417236 -7.535431l0 0c-3.944275 0 -7.141739 3.3737183 -7.141739 7.535431z" fill-rule="evenodd"/><path fill="#cfe2f3" d="m224.13911 377.99255l0 0c0 -8.105957 6.3949127 -14.677155 14.283463 -14.677155l0 0c3.788208 0 7.4212646 1.5463257 10.09993 4.298828c2.6786652 2.7525024 4.1835327 6.485718 4.1835327 10.378326l0 0c0 8.105988 -6.394928 14.677185 -14.283463 14.677185l0 0c-7.88855 0 -14.283463 -6.5711975 -14.283463 -14.677185zm7.1417236 0l0 0c0 4.1617126 3.197464 7.535431 7.141739 7.535431c3.9442596 0 7.1417236 -3.3737183 7.1417236 -7.535431l0 0c0 -4.161682 -3.197464 -7.535431 -7.1417236 -7.535431l0 0c-3.944275 0 -7.141739 3.3737488 -7.141739 7.535431z" fill-rule="evenodd"/><path stroke="#000000" stroke-width="1.0" stroke-linejoin="round" stroke-linecap="butt" d="m224.13911 377.99255l0 0c0 -8.105957 6.3949127 -14.677155 14.283463 -14.677155l0 0c3.788208 0 7.4212646 1.5463257 10.09993 4.298828c2.6786652 2.7525024 4.1835327 6.485718 4.1835327 10.378326l0 0c0 8.105988 -6.394928 14.677185 -14.283463 14.677185l0 0c-7.88855 0 -14.283463 -6.5711975 -14.283463 -14.677185zm7.1417236 0l0 0c0 4.1617126 3.197464 7.535431 7.141739 7.535431c3.9442596 0 7.1417236 -3.3737183 7.1417236 -7.535431l0 0c0 -4.161682 -3.197464 -7.535431 -7.1417236 -7.535431l0 0c-3.944275 0 -7.141739 3.3737488 -7.141739 7.535431z" fill-rule="evenodd"/><path fill="#cfe2f3" d="m224.13911 472.71783l0 0c0 -8.105957 6.3949127 -14.677155 14.283463 -14.677155l0 0c3.788208 0 7.4212646 1.5463562 10.09993 4.2988586c2.6786652 2.7525024 4.1835327 6.4856873 4.1835327 10.378296l0 0c0 8.105988 -6.394928 14.677185 -14.283463 14.677185l0 0c-7.88855 0 -14.283463 -6.5711975 -14.283463 -14.677185zm7.1417236 0l0 0c0 4.1617126 3.197464 7.5354614 7.141739 7.5354614c3.9442596 0 7.1417236 -3.3737488 7.1417236 -7.5354614l0 0c0 -4.161682 -3.197464 -7.535431 -7.1417236 -7.535431l0 0c-3.944275 0 -7.141739 3.3737488 -7.141739 7.535431z" fill-rule="evenodd"/><path stroke="#000000" stroke-width="1.0" stroke-linejoin="round" stroke-linecap="butt" d="m224.13911 472.71783l0 0c0 -8.105957 6.3949127 -14.677155 14.283463 -14.677155l0 0c3.788208 0 7.4212646 1.5463562 10.09993 4.2988586c2.6786652 2.7525024 4.1835327 6.4856873 4.1835327 10.378296l0 0c0 8.105988 -6.394928 14.677185 -14.283463 14.677185l0 0c-7.88855 0 -14.283463 -6.5711975 -14.283463 -14.677185zm7.1417236 0l0 0c0 4.1617126 3.197464 7.5354614 7.141739 7.5354614c3.9442596 0 7.1417236 -3.3737488 7.1417236 -7.5354614l0 0c0 -4.161682 -3.197464 -7.535431 -7.1417236 -7.535431l0 0c-3.944275 0 -7.141739 3.3737488 -7.141739 7.535431z" fill-rule="evenodd"/><path fill="#f6b26b" d="m123.66404 96.772964l39.149605 12.316078l0 441.60406l-39.149605 12.316101z" fill-rule="evenodd"/><path stroke="#e69138" stroke-width="1.0" stroke-linejoin="round" stroke-linecap="butt" d="m123.66404 96.772964l39.149605 12.316078l0 441.60406l-39.149605 12.316101z" fill-rule="evenodd"/><path fill="#f6b26b" d="m352.75592 559.33466l-38.204742 -9.5512085l0 -439.79526l38.204742 -9.551186z" fill-rule="evenodd"/><path stroke="#e69138" stroke-width="1.0" stroke-linejoin="round" stroke-linecap="butt" d="m352.75592 559.33466l-38.204742 -9.5512085l0 -439.79526l38.204742 -9.551186z" fill-rule="evenodd"/></g></svg>
